<svg xmlns="http://www.w3.org/2000/svg" viewBox="0 0 600 360"><rect width="600" height="360" fill="#e8dfd3"/><circle cx="327" cy="96" r="45" fill="#efc779"/><path d="M0 188h37v-38h25v38h28v-61h45v61h316v-27h41v27h29v-47h43v47h36v172H0Z" fill="#bacac0" opacity=".5"/><path d="M0 285h600v75H0Z" fill="#b0bfa7"/><ellipse cx="302" cy="300" rx="210" ry="24" fill="#809a88" opacity=".27"/><path d="m180 108 53 24v247l-53-15Z" fill="#294c4b"/><rect x="233" y="132" width="158" height="159" fill="#4b7778"/><path d="m180 108 158-7 53 31H233Z" fill="#bbc6b7"/><path d="M239 149h145" stroke="#bfd1c2" stroke-width="6"/><path d="M239 185h145" stroke="#bfd1c2" stroke-width="6"/><path d="M239 221h145" stroke="#bfd1c2" stroke-width="6"/><path d="M239 257h145" stroke="#bfd1c2" stroke-width="6"/><path d="M239 293h145" stroke="#bfd1c2" stroke-width="6"/><path d="M239 329h145" stroke="#bfd1c2" stroke-width="6"/><path d="M270 132v267m41-267v267m42-267v267" stroke="#cbd5c6" stroke-width="3"/><rect x="120" y="212" width="118" height="79" fill="#f5dfba"/><rect x="138" y="227" width="77" height="46" fill="#4b7778"/><path d="M176.5 227v46" stroke="#b8c9bc" stroke-width="2"/><g transform="translate(452 292) scale(0.95)"><path d="M0 0V-63" stroke="#705b43" stroke-width="6"/><ellipse cy="-63" rx="23" ry="37" fill="#527467"/><ellipse cx="-9" cy="-70" rx="13" ry="24" fill="#6f8e73"/></g><path d="M0 345h600" stroke="#f6f0df" stroke-width="3"/></svg>